<?xml version="1.0" standalone="no"?>
<!DOCTYPE svg PUBLIC "-//W3C//DTD SVG 20010904//EN"
 "http://www.w3.org/TR/2001/REC-SVG-20010904/DTD/svg10.dtd">
<svg version="1.0" xmlns="http://www.w3.org/2000/svg"
 width="1024.000000pt" height="1024.000000pt" viewBox="0 0 1024.000000 1024.000000"
 preserveAspectRatio="xMidYMid meet">

<g transform="translate(0.000000,1024.000000) scale(0.100000,-0.100000)"
fill="#000000" stroke="none">
<path d="M4865 9449 c-427 -27 -881 -132 -1310 -305 -147 -59 -484 -227 -625
-312 -514 -308 -1044 -816 -1390 -1332 -46 -68 -100 -153 -120 -189 -22 -41
-43 -67 -55 -69 -34 -7 -55 -33 -55 -69 0 -45 22 -63 143 -118 335 -150 787
-453 1048 -703 119 -113 249 -256 249 -272 0 -5 -19 -14 -42 -21 -82 -21 -139
-51 -153 -80 -21 -40 -19 -56 10 -75 30 -19 81 -13 116 15 13 10 45 21 71 24
27 4 58 9 71 12 19 5 29 -1 51 -30 l28 -36 -31 -87 c-37 -103 -79 -275 -95
-387 l-12 -80 -74 -28 c-41 -16 -104 -42 -140 -58 -138 -61 -160 -53 -160 57
0 62 -3 77 -22 98 -13 14 -32 26 -43 27 -70 6 -85 -13 -85 -102 l0 -69 -40 -2
c-22 -1 -50 -2 -61 -2 -18 -1 -24 8 -33 45 -23 88 -152 230 -222 243 -42 8
-80 -12 -94 -49 -13 -35 -5 -49 53 -95 59 -47 100 -99 92 -118 -2 -7 -1 -10 5
-7 5 3 14 -11 19 -32 6 -20 9 -37 8 -38 -36 -19 -141 -103 -162 -129 -22 -28
-36 -36 -62 -36 l-33 0 0 75 c0 47 -6 87 -15 104 -24 48 -100 48 -126 0 -6
-13 -12 -59 -13 -104 l-1 -81 -110 1 c-60 0 -129 -4 -152 -8 l-41 -8 -33 63
c-19 35 -59 89 -91 121 -50 50 -61 57 -96 57 -32 0 -45 -6 -61 -26 -33 -41
-27 -67 28 -119 27 -26 61 -70 76 -98 l28 -50 -30 -26 c-17 -14 -45 -39 -63
-54 l-33 -28 -23 22 c-46 43 -59 101 -58 254 3 360 165 1316 298 1754 38 126
32 181 -20 181 -65 0 -109 -64 -156 -225 -165 -573 -328 -1675 -278 -1886 17
-71 52 -140 97 -190 l36 -39 -31 -63 c-47 -93 -65 -177 -66 -297 -1 -210 75
-360 262 -517 15 -12 26 -41 37 -94 20 -100 56 -204 107 -312 l42 -87 -32 -33
c-66 -69 -122 -188 -136 -289 -14 -110 37 -250 127 -345 46 -49 186 -133 221
-133 7 0 60 -96 119 -213 145 -289 215 -374 373 -452 130 -64 294 -95 510 -95
l134 0 37 -33 c104 -91 271 -211 430 -310 31 -20 51 -44 79 -97 160 -305 731
-539 1534 -627 232 -25 795 -25 1030 0 692 74 1228 263 1443 508 26 30 63 85
83 123 32 65 40 73 114 117 135 81 211 133 333 228 l118 91 148 0 c369 0 593
90 729 294 57 86 157 280 197 384 26 66 31 73 64 82 66 18 177 88 225 141 25
28 60 81 77 117 76 159 35 376 -95 501 -20 19 -36 40 -36 46 0 6 15 40 34 75
44 83 91 224 106 320 8 49 28 111 60 180 27 58 54 134 60 170 6 36 27 110 45
165 48 143 67 273 64 431 l-3 131 38 57 c79 119 116 246 116 395 0 155 -35
290 -114 435 -32 61 -47 104 -60 174 -16 90 -16 93 4 131 47 93 65 187 65 346
0 141 -2 153 -26 206 -30 62 -66 94 -122 104 -30 6 -37 11 -32 24 32 84 39
265 12 352 -46 152 -155 206 -353 176 -51 -7 -52 -7 -65 24 -15 38 -191 304
-275 415 -241 322 -592 675 -909 914 -377 284 -878 544 -1295 673 -523 162
-999 220 -1535 186z m715 -164 c567 -67 1094 -245 1617 -546 389 -224 784
-552 1084 -899 35 -41 72 -83 82 -95 106 -118 400 -546 385 -560 -2 -1 -26
-14 -55 -29 l-52 -26 -12 23 c-22 41 -152 231 -227 332 -226 301 -538 614
-838 842 -85 65 -291 203 -364 245 -480 275 -913 434 -1412 518 -248 41 -383
52 -643 52 -566 0 -1058 -103 -1600 -334 -570 -244 -1029 -577 -1481 -1078
-107 -118 -269 -334 -377 -501 l-56 -87 -46 23 c-25 13 -51 25 -57 27 -8 3 0
24 23 59 20 30 42 64 48 77 19 36 178 258 245 342 180 225 452 502 669 683
653 540 1522 889 2355 947 166 12 553 3 712 -15z m-230 -295 c419 -22 814
-110 1220 -272 775 -308 1444 -867 1911 -1597 l48 -75 -33 -40 -33 -40 -99 -2
c-187 -3 -334 -77 -426 -217 l-25 -38 -84 98 c-46 54 -131 148 -190 209 -98
102 -107 114 -113 160 -16 107 -75 188 -161 219 -27 10 -66 30 -85 45 -235
180 -404 287 -640 405 -178 89 -328 149 -525 209 -223 68 -523 125 -658 126
-44 0 -66 6 -95 25 -123 81 -308 84 -447 6 -40 -23 -67 -29 -140 -34 -563 -39
-1300 -340 -1758 -719 -37 -31 -71 -50 -95 -54 -88 -14 -164 -99 -191 -211
-16 -68 -19 -73 -133 -194 -64 -68 -136 -148 -160 -178 -94 -116 -93 -115
-115 -103 -11 6 -58 39 -104 74 -47 35 -152 103 -234 152 -83 49 -167 100
-188 113 l-38 24 90 132 c385 565 861 1000 1426 1303 522 280 1060 438 1616
473 178 12 262 12 459 1z m-86 -929 c62 -27 138 -100 166 -161 18 -38 28 -49
39 -44 121 48 258 -47 286 -200 7 -33 7 -33 63 -32 170 2 294 -168 252 -346
-26 -111 -100 -207 -175 -227 -29 -7 -31 -6 -47 40 -38 110 -145 231 -245 276
-31 14 -89 31 -129 36 -66 10 -82 9 -150 -11 -41 -12 -92 -33 -112 -46 -70
-44 -130 -128 -157 -221 l-12 -40 -199 -6 c-109 -4 -256 -14 -326 -23 -69 -9
-131 -16 -136 -16 -5 0 -37 20 -70 44 -49 37 -67 57 -93 113 -30 60 -33 77
-33 150 0 70 4 90 30 139 48 95 146 153 235 141 37 -5 37 -4 49 40 26 104 83
174 165 199 45 14 54 14 93 1 l44 -15 15 35 c34 83 114 152 211 184 70 24 171
19 236 -10z m-793 -108 c-29 -27 -67 -74 -84 -106 -29 -53 -37 -60 -83 -76
-115 -38 -201 -119 -256 -239 -42 -90 -50 -227 -21 -314 11 -32 18 -58 16 -58
-2 0 -48 21 -101 46 -189 89 -459 168 -692 202 l-55 8 120 80 c161 107 254
161 416 238 221 105 486 197 704 246 44 10 82 18 84 19 3 0 -19 -20 -48 -46z
m1369 22 c180 -38 433 -121 610 -200 185 -84 436 -226 562 -319 l58 -43 -93
-11 c-202 -26 -474 -104 -656 -188 -52 -25 -95 -43 -97 -42 -1 2 4 28 12 58
30 114 10 251 -49 353 -44 75 -136 151 -222 184 -71 28 -77 32 -101 81 -14 29
-50 74 -82 103 -31 28 -48 49 -37 45 11 -3 54 -13 95 -21z m-2565 -750 c255
-49 542 -161 818 -319 64 -37 125 -68 135 -68 9 -1 51 6 92 15 157 33 291 48
483 54 l197 6 -25 -56 c-106 -230 11 -454 270 -522 33 -8 81 -15 108 -15 59 0
191 27 230 46 27 15 29 14 85 -37 31 -29 80 -63 108 -76 46 -21 73 -27 169
-36 27 -3 35 -13 73 -90 75 -151 187 -240 335 -267 192 -36 394 103 414 283 5
46 11 58 52 97 26 25 55 56 64 69 l16 24 25 -29 c40 -44 128 -189 187 -305 97
-194 169 -419 185 -578 l6 -68 -88 -7 c-161 -13 -363 -61 -408 -97 -32 -25
-34 -68 -6 -94 22 -20 38 -19 195 19 61 15 156 30 213 33 l102 6 0 -49 c0 -51
-17 -221 -24 -240 -3 -8 -27 -7 -83 2 -43 7 -146 13 -229 13 -138 1 -154 -1
-178 -20 -17 -13 -26 -30 -26 -48 0 -52 20 -58 200 -64 91 -3 193 -11 228 -17
57 -11 62 -14 56 -34 -13 -42 -66 -166 -74 -171 -4 -2 -50 13 -102 34 -119 49
-310 111 -341 111 -31 0 -55 -19 -62 -51 -10 -42 20 -66 135 -105 58 -19 151
-56 207 -81 l103 -46 -23 -39 c-24 -45 -134 -168 -148 -168 -5 0 -30 15 -56
34 -78 55 -246 146 -271 146 -35 0 -59 -16 -66 -46 -10 -38 14 -67 91 -111 38
-20 101 -59 141 -86 l73 -48 -48 -38 c-91 -73 -399 -231 -449 -231 -8 0 -45
14 -82 31 -200 94 -483 174 -757 214 -275 40 -657 30 -937 -26 -228 -45 -482
-123 -622 -190 -33 -16 -65 -29 -71 -29 -18 0 -132 48 -226 95 -95 48 -173 96
-232 143 l-38 31 43 31 c24 18 81 54 128 82 47 27 95 59 108 71 43 40 18 107
-41 107 -32 0 -143 -60 -257 -138 l-65 -45 -58 64 c-54 58 -115 146 -106 152
23 16 188 83 277 113 131 45 167 71 157 112 -8 33 -31 52 -64 52 -28 0 -295
-89 -380 -126 -29 -13 -57 -24 -62 -24 -8 0 -61 133 -73 181 -6 27 -5 27 67
34 39 4 141 11 226 14 150 6 154 7 173 32 24 32 11 75 -29 90 -29 11 -361 6
-434 -7 l-36 -6 -12 76 c-6 42 -11 109 -11 148 l0 71 103 -6 c62 -3 150 -18
225 -36 68 -17 131 -31 141 -31 30 0 64 45 57 74 -14 56 -203 113 -433 132
l-83 7 0 38 c0 64 49 273 92 397 67 192 155 356 298 557 84 119 91 137 60 170
-29 31 -51 38 -83 26 -51 -20 -159 -150 -257 -312 -28 -47 -52 -76 -54 -68
-86 258 -128 508 -130 769 -1 207 22 274 104 309 31 14 178 6 285 -14z m4023
-3 c53 -39 66 -87 70 -274 5 -236 -34 -470 -121 -723 l-24 -70 -23 45 c-28 56
-131 206 -221 321 -14 19 -32 57 -39 84 -30 116 -105 205 -218 258 -64 31 -72
32 -187 32 -100 -1 -129 -4 -175 -23 -30 -12 -57 -18 -60 -14 -3 4 -22 28 -43
53 l-36 46 82 41 c231 113 568 218 787 246 82 10 177 0 208 -22z m-1796 -6
c74 -26 165 -124 199 -213 11 -30 7 -37 -54 -102 l-48 -51 -62 30 c-34 16 -67
30 -74 30 -6 0 -25 -12 -42 -26 -58 -48 -38 -101 60 -159 l54 -31 0 -70 c0
-49 -4 -68 -12 -67 -7 2 -10 -4 -6 -13 5 -13 7 -13 14 -2 7 10 9 10 9 -3 0
-41 -215 -60 -291 -26 -172 76 -187 286 -26 368 37 19 47 34 26 41 -19 6 -38
101 -29 146 22 122 157 193 282 148z m3596 -162 c13 -8 28 -27 33 -42 17 -42
4 -206 -21 -285 -19 -62 -25 -70 -58 -83 -75 -30 -158 -77 -205 -116 -26 -23
-49 -39 -50 -37 -73 110 -114 142 -213 162 l-69 14 3 34 c19 180 167 307 423
364 70 15 121 12 157 -11z m-6385 -296 c6 -140 23 -263 51 -383 8 -33 14 -61
12 -62 -1 -1 -53 48 -115 110 -62 62 -133 128 -157 147 -24 19 -44 40 -44 45
0 18 225 284 241 285 3 0 9 -64 12 -142z m5023 -67 c52 -63 94 -118 94 -121 0
-4 -51 -10 -112 -13 -62 -4 -131 -11 -153 -16 -22 -6 -41 -8 -44 -5 -2 2 1 40
8 83 6 43 15 125 18 181 l6 103 44 -49 c25 -27 87 -101 139 -163z m-1696 189
c48 -13 106 -63 132 -113 18 -33 22 -59 23 -121 0 -53 -4 -81 -12 -83 -7 -2
-9 -11 -6 -20 5 -12 3 -14 -7 -8 -9 5 -11 4 -6 -4 5 -7 -7 -29 -27 -54 -91
-111 -255 -124 -355 -29 -55 52 -74 95 -80 178 -4 62 -1 79 21 125 30 66 58
96 111 120 46 21 148 25 206 9z m2366 -83 c1 -1 -1 -37 -4 -80 l-5 -78 -46
-31 c-25 -17 -61 -47 -80 -67 -44 -47 -98 -160 -95 -200 1 -22 -3 -32 -17 -36
-24 -8 -95 26 -91 43 1 8 -2 11 -7 7 -6 -3 -18 7 -28 22 -13 20 -18 47 -18
103 0 64 4 83 29 126 44 81 79 118 146 153 65 35 136 52 184 45 16 -2 30 -5
32 -7z m-1789 -79 c85 -21 163 -119 163 -204 0 -65 -72 -176 -102 -158 -7 4
-8 3 -4 -4 4 -7 1 -12 -9 -12 -9 0 -14 -4 -11 -9 3 -4 -12 -14 -33 -21 l-38
-12 10 -43 c15 -65 -6 -127 -57 -171 -22 -19 -46 -32 -53 -30 -7 3 -13 1 -13
-3 0 -5 -18 -12 -40 -16 -60 -10 -132 18 -186 73 -52 52 -99 127 -89 142 3 5
1 10 -4 10 -19 0 -12 17 13 28 13 6 39 24 58 40 31 28 37 29 78 22 74 -15 125
-12 142 8 42 48 28 93 -38 126 -22 10 -46 22 -54 26 -12 5 -14 21 -11 66 2 33
4 70 5 82 4 56 158 89 273 60z m1993 -183 c42 -22 72 -62 86 -115 14 -56 13
-64 -22 -131 -13 -25 -30 -72 -39 -104 -8 -33 -19 -63 -25 -69 -5 -5 -36 -12
-69 -14 -116 -8 -197 40 -244 147 -33 75 -13 174 48 236 68 67 187 90 265 50z
m670 -41 c11 -10 16 -42 18 -107 4 -107 -21 -235 -64 -318 -34 -68 -107 -145
-164 -174 -48 -24 -126 -42 -117 -27 3 4 -7 6 -24 4 -17 -3 -29 0 -29 7 0 6
-10 11 -21 11 -33 0 -94 70 -114 130 -34 102 -2 236 81 337 89 109 373 199
434 137z m-1351 -137 c37 -82 141 -157 239 -173 33 -5 46 -14 62 -39 30 -49
96 -104 155 -131 55 -25 150 -33 226 -19 34 6 35 6 59 -46 32 -72 87 -129 157
-165 54 -27 66 -29 173 -29 107 0 119 2 168 28 30 16 55 27 56 25 163 -216
225 -500 154 -703 -55 -159 -192 -291 -320 -310 -60 -9 -60 -2 -8 67 56 73
110 188 117 247 5 44 3 52 -20 75 -51 51 -102 28 -138 -61 -13 -32 -34 -77
-47 -100 l-23 -42 -50 38 c-27 21 -76 48 -107 61 -31 12 -60 26 -64 29 -19 17
60 169 112 216 12 11 28 32 36 47 18 35 3 72 -37 88 -78 33 -191 -80 -253
-252 l-23 -63 -70 -6 c-39 -4 -88 -12 -109 -19 -57 -19 -153 -66 -174 -85 -11
-10 -24 -14 -32 -9 -7 4 -10 3 -5 -1 4 -5 -9 -26 -29 -46 l-37 -37 -39 58
c-53 80 -191 208 -254 236 -28 12 -54 30 -57 38 -4 9 -11 16 -17 16 -6 0 -8
-4 -5 -10 9 -14 3 -13 -50 10 -25 11 -56 22 -68 24 -73 14 -117 30 -121 45 -2
9 -8 41 -11 71 -13 110 -47 248 -96 391 l-49 146 35 39 c32 35 37 37 46 22 7
-12 22 -18 49 -18 38 0 47 5 74 44 11 16 17 17 49 7 26 -9 46 -9 75 -2 83 23
105 103 34 125 -26 9 -125 -10 -165 -31 -27 -13 -32 -13 -69 12 -29 20 -38 31
-33 43 4 9 14 43 23 76 13 49 20 60 46 71 48 20 206 40 343 43 l73 2 19 -43z
m-5169 -1118 c0 -28 -5 -33 -85 -70 -47 -21 -98 -39 -113 -38 -15 0 -21 3 -14
6 24 10 12 25 -15 18 -26 -6 -27 -5 -9 8 11 8 29 13 40 11 12 -3 15 -1 7 2
-12 6 5 14 124 59 11 5 27 9 35 11 8 2 16 8 18 13 7 20 12 11 12 -20z m4897
-85 c106 -53 203 -136 264 -225 22 -33 37 -59 35 -59 -3 0 -25 8 -48 18 -32
13 -71 17 -153 17 -120 0 -198 -18 -262 -62 -38 -26 -51 -30 -34 -10 6 8 9 16
6 18 -2 3 2 54 10 114 8 61 15 141 15 179 l0 68 38 -6 c20 -4 78 -27 129 -52z
m-5359 -69 c95 -29 187 -124 228 -235 25 -71 22 -230 -6 -305 -28 -73 -89
-165 -111 -165 -14 0 -105 43 -119 56 -2 3 -3 35 -2 72 4 80 -15 113 -74 132
-59 20 -180 8 -241 -23 -118 -61 -217 -190 -250 -326 -17 -72 -19 -75 -83
-126 -86 -69 -133 -114 -155 -147 -9 -15 -21 -25 -26 -22 -5 3 -7 -1 -4 -8 2
-7 -6 -31 -19 -53 -22 -38 -25 -40 -72 -39 -56 2 -191 55 -186 74 1 6 -2 9 -8
5 -6 -4 -27 6 -47 22 -20 15 -41 31 -46 34 -5 4 -4 16 3 30 10 21 9 22 -3 7
-13 -16 -15 -15 -36 10 -81 100 -118 270 -88 409 22 100 54 164 117 235 96
108 240 165 395 155 122 -7 228 -53 318 -135 25 -24 27 -24 27 -6 0 16 2 17
10 4 7 -11 8 -7 5 15 -4 22 4 50 29 102 92 191 267 280 444 228z m485 -145
c15 -138 95 -400 152 -494 l32 -54 -61 4 c-33 2 -101 -3 -150 -12 -49 -8 -95
-13 -103 -10 -8 3 -12 2 -9 -3 3 -5 -3 -11 -13 -14 -17 -4 -15 4 15 66 68 143
81 301 35 447 -12 36 -21 70 -21 76 0 11 83 53 106 54 6 0 14 -26 17 -60z
m5822 30 c66 -11 151 -42 205 -75 33 -21 35 -25 35 -76 0 -68 20 -101 83 -137
72 -41 133 -109 174 -192 48 -97 61 -159 56 -274 -3 -84 -7 -100 -41 -168 -42
-83 -114 -159 -189 -203 -40 -22 -48 -24 -48 -11 0 34 -85 149 -167 225 -88
82 -174 138 -277 181 l-59 25 -22 90 c-28 113 -70 201 -141 293 l-55 72 20 45
c25 57 112 144 171 173 40 19 119 38 175 41 11 0 47 -4 80 -9z m-699 -245
c108 -53 222 -188 270 -319 34 -95 49 -203 35 -262 -6 -27 -14 -62 -17 -79
-12 -68 -85 -177 -112 -168 -12 3 -14 2 -4 -4 7 -5 10 -17 6 -26 -3 -9 0 -23
8 -31 8 -7 27 -28 42 -46 24 -29 30 -31 51 -22 29 13 98 100 130 162 13 25 29
75 36 111 7 35 14 66 15 67 1 2 44 -18 95 -44 203 -105 319 -264 319 -439 0
-176 -80 -306 -249 -405 -242 -141 -662 -161 -1063 -50 -271 75 -533 268 -577
425 -38 138 36 345 157 440 64 50 70 52 78 28 21 -64 60 -142 86 -172 92 -105
224 -173 413 -212 76 -16 296 -16 355 0 66 18 100 32 100 43 0 17 -63 98 -76
98 -7 0 -18 8 -23 18 -7 11 -13 13 -18 6 -17 -25 -82 -30 -253 -19 -82 5 -233
48 -284 81 -123 81 -172 181 -164 333 13 237 176 443 401 506 74 21 176 13
243 -20z m1364 -93 c0 -31 -3 -68 -7 -81 -6 -23 -6 -22 -19 8 -7 17 -11 39 -8
49 5 13 4 14 -4 4 -7 -11 -10 -10 -16 3 -10 28 -7 43 16 64 30 28 38 18 38
-47z m-7151 -179 c-19 -85 39 -218 139 -319 121 -123 257 -185 511 -234 257
-50 325 -76 413 -158 63 -59 91 -112 98 -185 l5 -57 36 32 c50 46 79 91 99
155 l17 55 20 -28 c53 -76 62 -59 -120 -237 -91 -89 -197 -203 -236 -254 -39
-50 -85 -103 -102 -117 -82 -69 -292 -142 -514 -178 -120 -19 -418 -16 -540 6
-385 69 -556 207 -486 388 l10 27 57 -34 c31 -19 77 -41 103 -49 52 -16 121
-29 121 -22 0 2 -24 18 -53 34 -78 44 -141 109 -161 168 -43 124 -24 289 49
419 38 68 150 190 165 180 6 -3 10 -23 10 -43 0 -55 56 -247 89 -309 5 -10 24
-47 41 -83 125 -255 302 -391 494 -378 l50 3 -75 29 c-186 72 -309 193 -414
405 -91 185 -122 356 -91 510 29 143 96 243 191 287 73 35 85 33 74 -13z m245
-236 c85 -32 200 -34 347 -3 150 31 235 33 318 7 83 -26 141 -62 194 -121 74
-82 117 -192 117 -299 l0 -53 -60 55 c-110 103 -221 150 -438 187 -297 50
-447 113 -553 228 -58 63 -64 86 -13 47 20 -15 59 -37 88 -48z m2876 -251
c102 -4 324 -37 338 -51 2 -2 -5 -12 -14 -24 -13 -14 -25 -19 -41 -15 -13 4
-23 2 -22 -2 3 -20 -2 -26 -15 -15 -11 9 -15 8 -20 -4 -3 -9 -10 -14 -15 -10
-5 3 -13 0 -17 -6 -5 -8 -3 -9 6 -4 9 5 11 4 6 -4 -4 -6 -26 -21 -48 -32 -31
-16 -38 -23 -27 -30 9 -6 10 -9 2 -9 -6 0 -15 5 -18 10 -3 6 -12 10 -18 9 -8
0 -8 -2 1 -6 10 -4 10 -8 1 -19 -14 -17 -33 -19 -23 -2 4 7 3 8 -4 4 -7 -4
-12 -14 -12 -23 0 -9 -6 -13 -14 -10 -8 3 -22 -4 -33 -15 -10 -12 -13 -19 -7
-15 6 3 11 0 11 -7 0 -8 -8 -11 -21 -8 -19 5 -19 4 -7 -11 12 -15 12 -17 -3
-11 -9 4 -16 1 -16 -6 0 -7 -7 -10 -15 -6 -8 3 -15 1 -15 -4 0 -6 5 -10 10
-10 6 0 10 -5 10 -10 0 -7 -8 -6 -22 1 -21 11 -22 11 -9 -5 18 -21 8 -32 -12
-12 -12 13 -17 13 -26 2 -6 -7 -8 -16 -4 -19 8 -9 -17 -38 -28 -31 -5 3 -6 -3
-2 -12 5 -13 3 -16 -9 -11 -9 3 -23 0 -32 -6 -15 -11 -14 -16 14 -53 16 -23
42 -49 56 -59 l26 -17 77 74 c183 179 376 304 542 352 56 16 58 16 169 -14
224 -61 463 -165 616 -267 81 -55 314 -255 314 -271 0 -4 25 -34 55 -67 30
-33 55 -64 55 -68 0 -4 9 -18 20 -29 11 -12 19 -26 17 -31 -1 -5 -54 -41 -117
-79 -63 -38 -161 -101 -218 -139 -56 -38 -104 -69 -106 -69 -6 0 -36 97 -36
114 0 9 -4 16 -10 16 -5 0 -10 9 -10 21 0 11 -4 18 -9 15 -5 -4 -7 4 -4 16 5
22 4 22 -16 -2 l-20 -25 3 65 c1 36 -2 74 -7 85 -10 19 -10 19 -18 -3 -5 -12
-13 -22 -18 -22 -6 0 -7 7 -4 17 4 11 3 14 -5 9 -8 -5 -14 3 -18 23 -4 17 -10
31 -15 31 -5 0 -5 7 -2 17 4 11 3 14 -5 9 -7 -4 -13 -2 -13 3 -1 6 -3 16 -4
21 -1 6 -3 14 -4 20 0 5 -7 9 -13 7 -7 -1 -12 4 -11 10 2 7 -3 12 -10 10 -6
-1 -11 6 -11 15 1 10 -1 16 -5 15 -9 -3 -126 123 -126 136 0 6 6 12 13 15 7 2
10 -2 6 -12 -5 -12 -2 -15 12 -10 15 5 16 4 4 -4 -12 -9 -9 -13 13 -21 15 -6
32 -21 37 -33 5 -13 9 -18 10 -13 0 6 17 -8 36 -30 35 -39 35 -39 13 -5 -47
69 -148 174 -158 164 -3 -3 1 -9 9 -15 13 -8 13 -10 0 -19 -13 -8 -48 14 -80
51 -3 3 -15 11 -27 18 -19 10 -29 6 -77 -28 -31 -21 -53 -41 -49 -45 3 -3 -1
-6 -11 -6 -11 0 -14 -4 -10 -12 5 -7 2 -9 -9 -5 -17 7 -41 -15 -29 -28 4 -5
-1 -5 -12 -1 -13 4 -17 2 -13 -8 6 -16 -19 -30 -35 -20 -6 4 -8 1 -6 -7 3 -8
13 -13 22 -13 14 2 15 -1 4 -13 -8 -10 -14 -11 -16 -4 -2 6 -8 11 -14 11 -6 0
-8 -6 -5 -13 4 -10 -3 -13 -24 -12 -37 2 -57 -19 -39 -40 7 -9 10 -18 6 -22
-3 -3 -6 -1 -6 5 0 7 -7 12 -15 12 -8 0 -15 -5 -15 -11 0 -5 -4 -7 -10 -4 -5
3 -10 -1 -10 -9 0 -9 6 -16 13 -16 14 -1 -22 -30 -37 -30 -5 0 -2 6 8 13 16
12 16 15 4 20 -10 3 -42 -23 -94 -77 -79 -81 -79 -82 -64 -109 17 -30 20 -29
107 5 45 18 54 19 69 7 22 -18 123 -143 161 -200 71 -104 168 -326 202 -463
l17 -69 64 55 c107 90 538 410 635 470 116 73 209 116 265 124 81 11 137 -51
197 -217 22 -62 27 -95 30 -201 4 -142 -9 -199 -66 -282 -33 -48 -139 -156
-152 -156 -5 0 -30 -16 -56 -36 -52 -39 -181 -108 -258 -136 -114 -43 -215
-75 -216 -69 0 3 0 24 0 46 1 22 -3 47 -9 55 -8 13 -12 11 -27 -10 -39 -56
-119 -123 -136 -114 -7 4 -9 3 -5 -1 10 -10 -89 -68 -102 -60 -6 3 -10 2 -10
-3 0 -22 -215 -74 -386 -93 -54 -6 -102 -13 -107 -16 -5 -3 -13 1 -18 8 -6 10
-9 11 -9 2 0 -7 -4 -13 -10 -13 -5 0 -3 19 5 41 17 46 19 69 7 69 -4 0 -32
-20 -62 -45 -58 -48 -126 -78 -200 -89 -25 -4 -134 -10 -242 -13 -252 -7 -438
8 -514 42 -30 13 -54 29 -54 35 0 6 -4 8 -10 5 -5 -3 -29 12 -53 35 -24 22
-47 40 -51 40 -4 0 -5 -22 -4 -49 2 -27 6 -47 11 -44 4 2 7 -3 7 -12 0 -11 -7
-14 -22 -11 -13 3 -82 13 -155 22 -72 10 -130 21 -127 25 2 4 -5 5 -15 2 -20
-5 -153 28 -211 53 -102 45 -186 101 -234 159 -39 48 -52 49 -58 5 -1 -14 -10
-28 -18 -32 -13 -6 -13 -7 1 -7 9 -1 19 -10 22 -22 4 -16 2 -19 -11 -14 -9 3
-29 9 -44 12 -15 3 -25 9 -22 14 3 5 -2 6 -10 3 -31 -12 -272 93 -391 170
-209 136 -296 301 -275 521 13 139 83 315 142 358 17 13 41 20 65 19 73 -3
329 -144 543 -300 47 -34 148 -106 225 -161 77 -54 157 -114 177 -134 21 -19
40 -32 43 -29 3 3 5 19 5 36 0 17 12 56 26 86 14 30 37 84 51 120 37 97 100
218 146 280 67 89 159 190 173 190 7 0 43 -16 80 -35 37 -19 69 -33 72 -30 6
6 -27 57 -46 71 -12 9 -12 15 -3 35 11 21 11 22 -2 6 -12 -14 -16 -15 -26 -4
-6 8 -7 17 -3 21 4 4 2 6 -3 4 -14 -4 -65 37 -65 52 0 6 -4 9 -8 6 -4 -2 -19
5 -32 15 l-25 20 25 -11 c23 -10 24 -10 7 4 -11 8 -26 12 -34 9 -12 -5 -14 -1
-8 15 4 13 2 22 -4 22 -6 0 -11 -5 -11 -11 0 -5 -5 -7 -11 -3 -6 3 -9 17 -6
30 3 19 0 24 -17 24 -18 0 -19 2 -6 11 12 9 12 10 -3 5 -25 -8 -43 4 -26 16
11 8 11 9 -1 5 -8 -2 -14 -12 -13 -22 1 -13 -2 -14 -10 -6 -9 9 -8 17 1 31 7
12 8 20 2 20 -5 0 -10 -4 -10 -9 0 -5 -7 -11 -14 -14 -11 -4 -13 -1 -9 10 4
11 3 14 -6 9 -15 -10 -91 41 -91 60 0 34 171 165 296 227 39 20 53 33 57 54
14 65 161 205 280 267 61 32 71 34 139 30 40 -2 129 -6 198 -8z m-645 -154
c16 -8 13 -13 -19 -42 -20 -18 -36 -40 -36 -47 0 -8 -4 -12 -9 -8 -9 5 -60
-13 -71 -25 -3 -4 -20 -12 -37 -19 -18 -7 -30 -18 -27 -23 3 -5 17 -2 31 7 14
9 27 14 30 12 11 -11 -53 -35 -68 -26 -12 6 -33 -1 -73 -22 -47 -26 -54 -33
-46 -48 8 -16 5 -18 -18 -14 -22 3 -23 2 -8 -5 24 -11 6 -25 -21 -16 -13 4
-15 3 -4 -4 15 -11 -2 -27 -18 -17 -5 3 -13 0 -17 -6 -5 -8 -3 -9 7 -4 8 5 3
-4 -10 -18 -14 -15 -27 -24 -30 -21 -3 3 1 9 9 14 8 6 11 10 5 10 -19 0 -38
-18 -31 -29 11 -17 0 -13 -20 7 -17 16 -17 16 -11 0 3 -10 2 -20 -3 -23 -6 -4
-10 -1 -10 5 0 6 -5 8 -11 5 -7 -5 -6 -11 3 -18 7 -7 11 -11 9 -9 -9 5 -40
-31 -34 -41 3 -6 1 -7 -5 -3 -7 4 -17 4 -23 0 -8 -5 -8 -9 1 -14 8 -5 3 -10
-13 -14 -16 -4 -27 -15 -31 -31 -6 -22 -11 -25 -29 -19 -20 6 -20 5 -8 -10 12
-15 12 -19 -2 -34 -11 -10 -17 -12 -17 -4 0 7 5 12 11 12 5 0 7 5 4 11 -10 15
-19 2 -20 -29 0 -17 -6 -26 -14 -24 -9 2 -11 -3 -8 -13 4 -9 -1 -20 -13 -27
-11 -7 -20 -18 -20 -25 0 -7 -7 -10 -15 -7 -11 4 -13 2 -10 -9 4 -8 -1 -17 -9
-20 -9 -4 -16 -18 -16 -34 0 -21 -3 -24 -10 -13 -11 18 -20 10 -24 -21 -2 -13
-16 -52 -31 -87 -20 -46 -31 -59 -37 -50 -6 9 -8 3 -3 -15 3 -17 2 -26 -4 -23
-9 6 4 -68 16 -87 4 -6 1 -7 -7 -2 -9 6 -10 2 -5 -15 5 -16 4 -20 -5 -15 -6 4
-9 18 -6 33 3 15 2 34 -4 42 -7 12 -11 8 -16 -17 -4 -18 -10 -33 -14 -33 -4 0
-72 42 -151 93 -79 51 -179 113 -221 137 -43 25 -78 47 -78 50 0 16 128 163
248 283 174 175 281 248 476 327 139 56 279 105 386 134 60 17 235 16 265 -2z
m2101 -75 l-11 -67 -48 32 c-26 18 -47 36 -47 39 0 3 15 13 33 23 17 9 43 23
57 31 13 8 25 13 26 12 1 -1 -4 -32 -10 -70z m-3041 -6 c-14 -14 -17 -14 -25
-1 -19 29 -12 41 15 28 23 -11 24 -13 10 -27z m-2345 10 l55 -11 -2 -98 c-1
-53 -3 -99 -3 -102 0 -3 -8 4 -17 15 -15 20 -15 19 -10 -5 4 -14 2 -32 -3 -40
-11 -18 -41 48 -76 169 -28 97 -28 95 -11 88 7 -2 37 -10 67 -16z m7730 -24
c0 -7 -48 -143 -65 -185 -12 -29 -20 -39 -26 -31 -4 7 -4 22 1 34 14 36 23
142 11 125 -6 -8 -11 -10 -11 -4 0 6 17 23 38 37 34 24 52 32 52 24z m-4743
-132 c0 -17 -13 -20 -21 -6 -4 5 0 12 6 14 7 3 13 6 14 6 0 1 1 -6 1 -14z
m858 5 c3 -6 -1 -7 -9 -4 -18 7 -21 14 -7 14 6 0 13 -4 16 -10z m-78 -82 c-3
-8 -6 -5 -6 6 -1 11 2 17 5 13 3 -3 4 -12 1 -19z m-891 -174 c-3 -9 -2 -12 5
-9 5 4 18 -2 28 -13 17 -20 194 -162 241 -193 l25 -17 -24 -25 c-13 -14 -28
-24 -35 -23 -6 2 -7 1 -3 -2 5 -2 -4 -17 -19 -33 -15 -15 -31 -26 -36 -23 -4
3 -8 -1 -8 -9 0 -8 -7 -17 -15 -21 -8 -3 -15 -12 -15 -20 0 -7 -7 -16 -15 -20
-8 -3 -15 -13 -15 -22 0 -14 -2 -15 -17 -3 -12 10 -15 11 -9 1 4 -7 2 -19 -4
-27 -7 -8 -10 -21 -7 -29 3 -8 -1 -13 -11 -12 -11 1 -16 -5 -14 -16 1 -9 -3
-20 -9 -24 -8 -5 -9 -3 -4 6 5 7 4 11 -1 7 -28 -17 -107 -224 -107 -279 0 -21
-2 -38 -4 -38 -2 0 -22 9 -45 21 -32 16 -38 23 -27 31 11 8 10 9 -4 4 -18 -6
-74 24 -166 87 -28 19 -56 37 -62 39 -12 4 -8 28 25 153 18 67 104 246 137
285 11 14 17 19 13 11 -4 -9 -3 -12 4 -7 6 4 9 12 7 19 -7 18 22 50 36 41 8
-5 10 -3 4 5 -9 16 34 63 52 57 15 -6 83 74 83 98 0 9 5 16 11 16 6 0 8 -7 5
-16z m1860 -3 c-16 -18 -15 -18 33 -17 43 2 48 0 41 -14 -7 -13 -3 -16 18 -16
21 1 31 -7 43 -30 8 -18 29 -45 45 -60 39 -37 67 -82 59 -94 -3 -6 1 -10 9
-10 16 0 31 -33 35 -76 0 -8 5 -13 10 -10 11 7 23 -22 16 -35 -4 -5 3 -18 13
-29 18 -19 66 -175 61 -196 -1 -5 1 -17 6 -27 5 -12 2 -22 -11 -32 -11 -8 -14
-14 -6 -15 6 0 12 -5 12 -11 0 -6 -6 -9 -13 -6 -7 2 -25 -11 -41 -29 -15 -19
-32 -34 -37 -34 -8 0 -35 -19 -164 -115 -25 -19 -31 -19 -39 1 -5 14 -4 15 9
4 13 -11 14 -10 10 3 -4 8 -2 18 4 22 6 3 11 12 11 18 0 7 -4 6 -10 -3 -8 -13
-10 -12 -11 5 -3 28 -5 37 -14 60 -22 56 -46 105 -51 105 -3 0 -2 -6 2 -12 4
-7 3 -9 -2 -5 -4 4 -9 22 -10 40 -1 39 -62 150 -76 140 -7 -4 -8 -1 -4 6 5 7
-4 29 -19 52 -31 44 -40 49 -32 17 5 -18 4 -19 -7 -7 -56 60 -126 151 -121
159 3 5 0 19 -7 30 -11 19 -10 24 10 40 13 11 31 17 40 14 13 -5 14 -4 3 4
-16 12 3 27 21 16 6 -4 8 -3 5 3 -7 11 92 100 105 96 5 -2 7 1 6 6 -2 5 11 21
27 35 35 30 45 34 21 7z m-1893 -16 c-3 -9 -8 -14 -10 -11 -3 3 -2 9 2 15 9
16 15 13 8 -4z m4687 -55 c0 -73 -14 -103 -73 -157 -58 -54 -141 -95 -253
-127 -172 -49 -263 -60 -494 -60 -224 0 -316 10 -480 55 -131 35 -280 103
-280 127 0 5 57 -11 128 -34 388 -129 859 -121 1156 19 100 48 192 119 246
190 19 26 38 47 43 47 4 0 7 -27 7 -60z m-4725 1 c-3 -6 -11 -11 -17 -11 -6 0
-6 6 2 15 14 17 26 13 15 -4z m341 -9 c-4 -3 -14 2 -24 12 -16 18 -16 18 6 6
13 -6 21 -14 18 -18z m4584 -140 c27 -56 30 -158 7 -212 -39 -91 -123 -166
-218 -194 -26 -8 -57 -20 -69 -26 -13 -7 -56 -83 -116 -208 -108 -223 -169
-327 -220 -371 -52 -46 -145 -90 -253 -119 -84 -22 -117 -25 -266 -26 -143 -1
-186 3 -275 23 -164 36 -166 37 -173 110 -4 33 -16 81 -28 105 l-21 46 22 62
c34 96 38 256 11 372 -12 49 -32 115 -45 147 l-23 58 21 -15 c53 -34 201 -74
356 -95 144 -20 493 -17 610 4 213 40 383 100 493 176 60 41 114 117 129 179
13 60 24 57 58 -16z m-7750 35 c0 -40 50 -125 98 -168 102 -89 314 -169 547
-206 150 -23 439 -23 595 0 94 14 268 58 336 84 10 4 8 -11 -10 -60 -61 -161
-72 -374 -26 -505 l22 -63 -22 -51 c-12 -29 -25 -78 -27 -110 -5 -54 -8 -58
-37 -68 -117 -38 -376 -59 -515 -41 -267 35 -390 105 -496 286 -55 93 -178
334 -189 371 -10 33 -51 65 -121 95 -37 15 -86 43 -110 61 -77 59 -133 180
-119 260 16 91 74 182 74 115z m4344 -16 c-10 -10 -21 -17 -23 -15 -6 6 20 34
32 34 6 0 2 -8 -9 -19z m167 -33 c11 -21 11 -22 -4 -9 -10 7 -17 17 -17 22 0
15 9 10 21 -13z m-218 -13 c-3 -9 -8 -14 -10 -11 -3 3 -2 9 2 15 9 16 15 13 8
-4z m880 -32 c-6 -2 -9 -14 -7 -26 l5 -22 -12 22 c-9 18 -9 26 2 39 10 12 14
13 18 3 2 -7 -1 -15 -6 -16z m-2716 -168 c0 -8 -4 -12 -9 -9 -5 3 -6 -7 -3
-23 5 -25 4 -26 -4 -5 -10 22 -5 52 8 52 4 0 8 -7 8 -15z m2231 -11 c0 -18 -3
-22 -9 -13 -11 18 -11 39 0 39 5 0 9 -12 9 -26z m572 -76 c0 -15 -4 -29 -8
-32 -4 -2 -8 12 -8 32 -1 20 -4 48 -8 62 -5 20 -3 19 8 -5 9 -16 15 -42 16
-57z m-23 0 c-3 -8 -6 -5 -6 6 -1 11 2 17 5 13 3 -3 4 -12 1 -19z m-2334 -73
c-3 -9 -8 -14 -10 -11 -3 3 -2 9 2 15 9 16 15 13 8 -4z m-16 -57 c-3 -8 -6 -5
-6 6 -1 11 2 17 5 13 3 -3 4 -12 1 -19z m-1033 -835 c25 -64 43 -119 40 -122
-9 -9 -110 99 -142 152 -31 51 -62 149 -62 194 0 20 10 13 59 -42 50 -55 66
-83 105 -182z m4140 215 c-18 -104 -70 -205 -148 -286 -75 -79 -79 -74 -34 56
39 113 43 120 111 190 39 39 73 72 74 72 1 0 0 -15 -3 -32z m201 -197 l69 -17
-99 -71 c-103 -73 -197 -133 -209 -133 -4 0 19 30 49 66 31 36 68 90 82 120
15 30 30 54 33 53 3 0 36 -8 75 -18z m-4605 -49 c17 -32 51 -81 75 -109 53
-61 57 -73 13 -40 -178 130 -229 170 -223 175 7 8 72 29 92 31 6 1 26 -25 43
-57z m465 30 c83 -51 343 -145 516 -187 36 -9 70 -20 76 -23 10 -7 93 -341 93
-374 0 -15 -9 -14 -82 9 -206 62 -432 169 -492 232 -19 20 -156 334 -156 357
0 8 16 3 45 -14z m3569 -102 c-91 -234 -93 -237 -143 -274 -66 -48 -144 -90
-236 -126 -98 -39 -296 -102 -302 -96 -5 5 64 342 76 371 6 15 29 25 87 39
150 35 361 110 498 177 33 16 61 27 62 26 2 -2 -17 -54 -42 -117z m-3651 -211
c10 -31 31 -75 47 -97 144 -200 709 -392 1355 -462 190 -21 651 -24 860 -6
499 43 884 136 1184 285 166 82 255 172 288 293 9 32 20 58 24 58 4 0 13 -16
19 -36 50 -150 -168 -342 -541 -477 -265 -96 -541 -153 -909 -189 -208 -20
-746 -17 -950 5 -651 72 -1129 234 -1342 455 -74 76 -88 103 -88 163 0 39 19
85 30 71 4 -4 14 -32 23 -63z m880 47 c15 -2 62 -12 104 -20 80 -16 255 -40
374 -52 l66 -6 12 -151 c7 -84 15 -169 18 -189 l6 -38 -49 6 c-220 26 -471 69
-490 85 -6 5 -14 30 -18 55 -3 25 -19 106 -36 180 -34 151 -33 147 -22 140 5
-3 20 -7 35 -10z m1978 -185 c-21 -101 -41 -185 -44 -187 -11 -11 -277 -55
-476 -79 l-54 -6 8 98 c4 54 10 139 14 188 l6 90 75 8 c174 17 486 69 499 83
15 14 9 -28 -28 -195z m-948 85 c226 1 267 -1 267 -13 0 -30 -33 -348 -36
-352 -8 -8 -345 -13 -445 -7 l-105 8 -12 156 c-7 86 -12 172 -12 190 0 33 0
33 38 25 20 -4 157 -7 305 -7z"/>
<path d="M3757 5482 c-10 -10 -17 -27 -17 -36 0 -43 62 -106 104 -106 12 0 8
-10 -15 -44 -55 -83 -72 -134 -73 -221 -1 -95 19 -156 75 -232 48 -65 142
-115 228 -121 119 -8 242 71 303 196 30 60 33 75 33 157 0 83 -3 96 -34 159
-79 160 -212 230 -371 193 l-65 -15 -47 44 c-52 49 -93 57 -121 26z m264 -173
c34 -13 59 -58 59 -108 0 -89 -104 -141 -184 -92 -84 52 -65 182 30 211 30 8
50 6 95 -11z"/>
<path d="M6372 5455 l-45 -45 -61 16 c-183 48 -353 -72 -396 -280 -34 -167 62
-349 215 -406 123 -45 269 1 349 110 102 138 97 310 -14 449 l-29 38 39 12
c65 19 101 99 62 134 -33 30 -70 21 -120 -28z m-241 -156 c117 -82 -4 -260
-131 -194 -41 21 -60 53 -60 101 0 99 108 152 191 93z"/>
<path d="M5093 5055 c-48 -20 -62 -57 -39 -100 20 -36 12 -66 -24 -85 -53 -28
-70 -3 -70 101 0 81 -63 117 -115 64 -24 -23 -25 -29 -25 -162 0 -86 5 -158
14 -191 41 -151 156 -252 291 -252 203 0 325 169 325 450 0 123 -27 180 -85
180 -46 0 -60 -23 -65 -112 -5 -76 -7 -83 -27 -86 -13 -2 -34 8 -53 25 -32 29
-32 29 -16 61 21 41 20 56 -6 85 -29 32 -65 39 -105 22z m71 -289 c23 -13 60
-27 84 -31 51 -8 53 -21 13 -91 -70 -121 -212 -110 -272 21 -30 64 -26 75 24
75 30 0 51 7 72 25 17 13 32 24 34 25 2 0 23 -11 45 -24z"/>
<path d="M5825 6460 c3 -5 8 -10 11 -10 2 0 4 5 4 10 0 6 -5 10 -11 10 -5 0
-7 -4 -4 -10z"/>
<path d="M6388 6063 c6 -2 18 -2 25 0 6 3 1 5 -13 5 -14 0 -19 -2 -12 -5z"/>
<path d="M8370 6156 c0 -2 7 -7 16 -10 8 -3 12 -2 9 4 -6 10 -25 14 -25 6z"/>
<path d="M8458 6123 c7 -3 16 -2 19 1 4 3 -2 6 -13 5 -11 0 -14 -3 -6 -6z"/>
<path d="M7690 5890 c-30 -30 -27 -100 6 -139 21 -25 33 -31 65 -31 22 0 53 7
69 15 28 14 29 14 35 -15 4 -16 19 -43 35 -60 23 -25 36 -30 75 -30 40 0 52 5
81 34 35 35 42 63 24 97 -13 23 -62 26 -80 4 -7 -8 -18 -15 -26 -15 -13 0 -18
11 -29 70 -4 19 -12 41 -17 48 -17 20 -63 14 -88 -13 -32 -34 -46 -31 -70 15
-23 45 -48 52 -80 20z"/>
<path d="M8295 5815 c-15 -14 -25 -36 -25 -53 0 -37 45 -127 77 -151 22 -18
23 -23 14 -57 -13 -48 0 -74 39 -74 20 0 36 9 54 33 14 17 26 26 26 19 0 -18
46 -62 65 -62 9 0 27 11 40 24 20 20 23 31 19 55 -6 29 -4 32 25 37 36 7 73
48 64 70 -10 28 -41 36 -72 19 -57 -29 -154 -13 -193 31 -9 11 -21 38 -27 61
-11 41 -41 73 -69 73 -7 0 -24 -11 -37 -25z"/>
<path d="M7967 5129 c7 -7 15 -10 18 -7 3 3 -2 9 -12 12 -14 6 -15 5 -6 -5z"/>
<path d="M1036 4187 c3 -10 9 -15 12 -12 3 3 0 11 -7 18 -10 9 -11 8 -5 -6z"/>
<path d="M8171 4044 c0 -11 3 -14 6 -6 3 7 2 16 -1 19 -3 4 -6 -2 -5 -13z"/>
<path d="M8090 3958 c0 -26 20 -32 35 -12 7 11 11 21 9 24 -3 2 -9 -2 -15 -10
-8 -13 -10 -13 -19 0 -8 13 -10 13 -10 -2z"/>
<path d="M8087 3919 c7 -7 15 -10 18 -7 3 3 -2 9 -12 12 -14 6 -15 5 -6 -5z"/>
<path d="M5530 3890 c0 -5 5 -10 10 -10 6 0 10 5 10 10 0 6 -4 10 -10 10 -5 0
-10 -4 -10 -10z"/>
<path d="M6120 3492 c0 -12 4 -22 9 -22 10 0 9 26 -2 36 -4 4 -7 -2 -7 -14z"/>
<path d="M4300 3396 c0 -20 17 -29 26 -15 5 8 3 9 -6 4 -10 -6 -12 -4 -7 8 3
10 2 17 -3 17 -6 0 -10 -6 -10 -14z"/>
<path d="M6372 3230 c7 -11 16 -20 20 -20 5 0 3 9 -4 20 -7 11 -16 20 -20 20
-5 0 -3 -9 4 -20z"/>
<path d="M6396 3187 c3 -10 9 -15 12 -12 3 3 0 11 -7 18 -10 9 -11 8 -5 -6z"/>
<path d="M6425 3162 c4 -13 2 -29 -5 -37 -9 -11 -7 -13 7 -11 19 3 20 28 2 56
-7 11 -8 9 -4 -8z"/>
<path d="M4607 3163 c-13 -12 -7 -22 10 -16 12 5 15 2 10 -10 -4 -11 -2 -14 9
-10 13 5 13 8 -2 24 -19 22 -18 21 -27 12z"/>
<path d="M5150 2831 c-7 -14 -7 -22 1 -26 18 -12 -20 -43 -47 -40 -18 2 -22
-1 -15 -8 6 -6 11 -15 11 -21 0 -6 -4 -6 -11 1 -8 8 -20 2 -43 -25 -17 -19
-30 -40 -28 -46 2 -5 -5 -3 -14 5 -10 8 -15 9 -11 3 7 -13 -16 -38 -26 -28 -3
3 -4 -6 -3 -20 2 -14 -1 -23 -5 -20 -5 3 -9 1 -9 -5 0 -6 -21 -31 -46 -56 -28
-28 -44 -52 -40 -61 5 -12 2 -12 -15 -3 -11 6 -23 8 -27 5 -3 -3 -1 -6 5 -6 6
0 13 -7 16 -14 4 -9 1 -13 -6 -10 -18 6 -37 -41 -23 -56 8 -9 5 -11 -14 -5
-24 7 -24 7 -5 -9 11 -8 14 -16 8 -16 -7 0 -13 -9 -13 -19 0 -11 -5 -23 -10
-26 -6 -4 -8 -11 -5 -16 4 -5 1 -9 -5 -9 -7 0 -10 -6 -7 -12 2 -7 1 -23 -4
-35 -9 -24 5 -33 51 -33 25 0 33 9 67 72 29 53 44 72 61 73 12 1 25 5 29 10 5
4 -2 4 -14 1 -32 -10 -29 1 21 67 62 81 230 256 202 210 -9 -16 6 -17 20 -3 8
8 15 6 24 -5 17 -21 36 -19 19 3 -7 9 1 4 19 -12 18 -17 32 -34 32 -39 0 -6
-9 -2 -20 8 -11 10 -20 14 -20 9 0 -10 39 -38 55 -39 6 -1 9 -7 7 -14 -1 -7 2
-10 8 -6 11 7 82 -99 125 -185 14 -30 32 -64 37 -75 10 -18 9 -19 -5 -6 -10 7
-17 20 -17 28 0 8 -4 11 -10 8 -15 -9 -12 -34 5 -51 8 -8 11 -22 8 -32 -6 -15
-5 -15 10 -3 11 9 17 10 17 2 0 -7 20 -11 50 -11 28 0 50 4 50 9 0 5 -7 28
-15 51 -8 24 -15 48 -14 54 3 25 -2 37 -13 30 -7 -4 -8 -3 -4 5 4 6 0 18 -8
27 -14 14 -14 17 -1 30 20 21 19 24 -7 19 l-23 -4 22 16 23 15 -45 64 c-25 36
-49 70 -55 77 -5 6 -22 27 -36 45 -20 25 -29 30 -35 20 -13 -20 -11 -31 6 -25
17 7 30 -9 30 -40 1 -17 -8 -12 -47 30 -32 36 -48 61 -48 80 0 15 -5 27 -11
27 -6 0 -8 -9 -4 -20 3 -11 4 -20 1 -20 -3 0 -11 21 -17 46 -8 32 -15 42 -22
35 -8 -8 -7 -15 1 -23 7 -7 12 -15 12 -19 0 -4 -23 15 -52 42 -28 27 -55 49
-59 49 -5 0 -13 -9 -19 -19z m-104 -149 c-17 -16 -18 -16 -5 5 7 12 15 20 18
17 3 -2 -3 -12 -13 -22z m401 -94 c-3 -8 -6 -5 -6 6 -1 11 2 17 5 13 3 -3 4
-12 1 -19z m40 -40 c11 -13 26 -34 32 -48 11 -24 11 -24 -9 3 -12 15 -25 25
-30 22 -4 -3 -15 6 -24 20 -22 33 2 35 31 3z m-591 -36 c-18 -16 -18 -16 -6 6
6 13 14 21 18 18 3 -4 -2 -14 -12 -24z m604 -22 c6 -11 8 -20 6 -20 -3 0 -10
9 -16 20 -6 11 -8 20 -6 20 3 0 10 -9 16 -20z"/>
<path d="M5466 2547 c3 -10 9 -15 12 -12 3 3 0 11 -7 18 -10 9 -11 8 -5 -6z"/>
<path d="M5227 2829 c12 -12 25 -20 28 -17 3 3 -7 13 -22 23 l-28 17 22 -23z"/>
<path d="M5123 2795 c0 -7 6 -11 14 -8 7 3 13 6 13 8 0 2 -6 5 -13 8 -8 3 -14
-1 -14 -8z"/>
<path d="M5340 2706 c0 -2 7 -9 15 -16 9 -7 15 -8 15 -2 0 5 -7 12 -15 16 -8
3 -15 4 -15 2z"/>
<path d="M5390 2651 c0 -6 4 -13 10 -16 6 -3 7 1 4 9 -7 18 -14 21 -14 7z"/>
<path d="M5160 2626 c0 -9 5 -16 10 -16 6 0 10 4 10 9 0 6 -4 13 -10 16 -5 3
-10 -1 -10 -9z"/>
<path d="M5331 2511 c7 -10 21 -24 33 -31 15 -9 12 -3 -8 19 -34 35 -41 39
-25 12z"/>
<path d="M5000 2450 c-8 -5 -12 -11 -10 -14 3 -2 14 2 24 10 22 15 10 19 -14
4z"/>
<path d="M5556 2445 c-3 -9 -6 -22 -5 -28 0 -7 5 -1 10 12 5 13 8 26 5 28 -2
2 -6 -3 -10 -12z"/>
<path d="M7262 2420 c0 -14 2 -19 5 -12 2 6 2 18 0 25 -3 6 -5 1 -5 -13z"/>
<path d="M5397 2410 c3 -11 9 -20 15 -20 5 0 4 9 -2 20 -6 11 -12 20 -14 20
-2 0 -2 -9 1 -20z"/>
<path d="M5573 2411 c0 -11 5 -18 9 -15 4 3 5 11 1 19 -7 21 -12 19 -10 -4z"/>
<path d="M4971 2404 c0 -11 3 -14 6 -6 3 7 2 16 -1 19 -3 4 -6 -2 -5 -13z"/>
<path d="M5415 2370 c3 -5 8 -10 11 -10 2 0 4 5 4 10 0 6 -5 10 -11 10 -5 0
-7 -4 -4 -10z"/>
<path d="M4917 2336 c-3 -8 -2 -18 3 -21 13 -8 20 9 11 24 -6 10 -10 9 -14 -3z"/>
<path d="M5430 2340 c0 -5 5 -10 10 -10 6 0 10 5 10 10 0 6 -4 10 -10 10 -5 0
-10 -4 -10 -10z"/>
<path d="M4732 2315 c0 -16 2 -22 5 -12 2 9 2 23 0 30 -3 6 -5 -1 -5 -18z"/>
<path d="M4892 2278 c-7 -7 -12 -18 -12 -26 0 -7 -5 -10 -12 -6 -7 5 -8 3 -3
-5 5 -9 11 -9 17 -3 6 6 16 9 22 8 6 -2 8 -1 5 1 -4 2 -5 13 -2 23 6 23 2 25
-15 8z"/>
<path d="M7111 2174 c0 -11 3 -14 6 -6 3 7 2 16 -1 19 -3 4 -6 -2 -5 -13z"/>
<path d="M3873 3238 c-15 -20 -25 -38 -20 -38 3 0 12 11 21 25 17 26 16 35 -1
13z"/>
<path d="M3880 3199 c0 -5 5 -7 10 -4 6 3 10 8 10 11 0 2 -4 4 -10 4 -5 0 -10
-5 -10 -11z"/>
<path d="M3727 2973 c-4 -3 -7 -13 -7 -22 1 -13 3 -13 11 2 11 19 8 33 -4 20z"/>
<path d="M4070 3220 c0 -5 5 -10 11 -10 5 0 7 5 4 10 -3 6 -8 10 -11 10 -2 0
-4 -4 -4 -10z"/>
<path d="M6240 3163 c0 -6 9 -21 21 -34 l20 -24 -17 30 c-24 39 -24 40 -24 28z"/>
<path d="M5877 3011 c15 -22 30 -35 32 -30 2 6 -6 19 -18 30 -12 11 -21 24
-21 29 0 6 -5 10 -11 10 -6 0 2 -18 18 -39z"/>
<path d="M6330 2955 c0 -5 5 -17 10 -25 5 -8 10 -10 10 -5 0 6 -5 17 -10 25
-5 8 -10 11 -10 5z"/>
<path d="M6407 2706 c-4 -10 -1 -13 9 -9 7 3 14 9 14 14 0 14 -17 10 -23 -5z"/>
<path d="M2275 6309 c-56 -10 -106 -33 -132 -61 -76 -81 -68 -230 16 -301 70
-58 157 -60 218 -3 31 28 37 40 41 89 4 57 5 57 38 57 24 0 38 7 54 27 68 86
-93 217 -235 192z"/>
<path d="M1530 6181 c-77 -24 -151 -92 -171 -160 -10 -34 -9 -44 5 -66 23 -34
41 -40 87 -28 l38 10 7 -41 c8 -50 57 -101 106 -110 69 -13 144 28 177 97 76
158 -83 348 -249 298z"/>
<path d="M1969 5853 c-12 -21 -24 -40 -26 -42 -1 -2 -18 4 -37 14 -44 24 -66
15 -66 -27 0 -46 32 -93 87 -128 38 -24 58 -30 102 -30 75 0 115 25 146 93 51
108 12 193 -55 122 l-24 -25 -31 30 c-42 41 -68 39 -96 -7z m129 -106 c23 -6
42 -14 42 -18 0 -4 -14 -19 -32 -34 -28 -24 -39 -27 -86 -23 -68 6 -83 24 -44
55 15 12 32 26 37 32 6 5 17 7 25 4 8 -3 34 -10 58 -16z"/>
<path d="M1300 5803 c-86 -13 -130 -42 -130 -84 0 -42 23 -49 139 -42 92 5
104 8 118 29 8 13 13 31 11 40 -7 37 -78 66 -138 57z"/>
</g>
</svg>
